<svg width="960" height="640" viewBox="0 0 960 640" fill="none" xmlns="http://www.w3.org/2000/svg">
  <defs>
    <linearGradient id="bg" x1="120" y1="16" x2="860" y2="620" gradientUnits="userSpaceOnUse">
      <stop stop-color="#FB7185"/>
      <stop offset="0.48" stop-color="#DC2626"/>
      <stop offset="1" stop-color="#7F1D1D"/>
    </linearGradient>
    <linearGradient id="boardFace" x1="0" y1="0" x2="0" y2="1">
      <stop stop-color="#FEF9C3"/>
      <stop offset="1" stop-color="#FDE68A"/>
    </linearGradient>
  </defs>

  <rect width="960" height="640" rx="40" fill="url(#bg)"/>
  <ellipse cx="480" cy="560" rx="340" ry="56" fill="rgba(15,23,42,0.24)"/>

  <g opacity="0.5">
    <circle cx="112" cy="118" r="8" fill="#FFF"/>
    <circle cx="194" cy="74" r="6" fill="#FDE68A"/>
    <circle cx="848" cy="90" r="7" fill="#FFF"/>
    <circle cx="772" cy="168" r="5" fill="#FDE68A"/>
  </g>

  <g opacity="0.92">
    <rect x="146" y="208" width="8" height="18" rx="2" fill="#FDE68A">
      <animateTransform attributeName="transform" type="rotate" values="0 150 217;24 150 217;0 150 217" dur="2.9s" begin="0.3s" repeatCount="indefinite"/>
      <animate attributeName="y" values="208;188;208" dur="2.9s" begin="0.3s" repeatCount="indefinite"/>
      <animate attributeName="opacity" values="0;1;0" dur="2.9s" begin="0.3s" repeatCount="indefinite"/>
    </rect>
    <rect x="212" y="184" width="7" height="14" rx="2" fill="#93C5FD">
      <animateTransform attributeName="transform" type="rotate" values="0 215 191;-18 215 191;0 215 191" dur="3.7s" begin="1.2s" repeatCount="indefinite"/>
      <animate attributeName="y" values="184;164;184" dur="3.7s" begin="1.2s" repeatCount="indefinite"/>
      <animate attributeName="opacity" values="0;1;0" dur="3.7s" begin="1.2s" repeatCount="indefinite"/>
    </rect>
    <circle cx="804" cy="218" r="5" fill="#FCA5A5">
      <animate attributeName="cy" values="218;196;218" dur="2.4s" begin="0.9s" repeatCount="indefinite"/>
      <animate attributeName="opacity" values="0;1;0" dur="2.4s" begin="0.9s" repeatCount="indefinite"/>
    </circle>
    <rect x="744" y="164" width="7" height="16" rx="2" fill="#86EFAC">
      <animateTransform attributeName="transform" type="rotate" values="0 748 172;20 748 172;0 748 172" dur="3.3s" begin="1.8s" repeatCount="indefinite"/>
      <animate attributeName="y" values="164;144;164" dur="3.3s" begin="1.8s" repeatCount="indefinite"/>
      <animate attributeName="opacity" values="0;1;0" dur="3.3s" begin="1.8s" repeatCount="indefinite"/>
    </rect>
    <circle cx="482" cy="132" r="4" fill="#FDE68A">
      <animate attributeName="cy" values="132;108;132" dur="4.1s" begin="0.4s" repeatCount="indefinite"/>
      <animate attributeName="opacity" values="0;1;0" dur="4.1s" begin="0.4s" repeatCount="indefinite"/>
    </circle>
  </g>

  <g transform="translate(420 138)">
    <animateTransform attributeName="transform" type="translate" values="420 138;420 128;420 138" dur="3.0s" repeatCount="indefinite"/>
    <circle cx="60" cy="62" r="30" fill="#FECACA"/>
    <rect x="34" y="94" width="52" height="102" rx="20" fill="#34D399"/>
    <rect x="25" y="112" width="11" height="48" rx="6" fill="#FECACA">
      <animateTransform attributeName="transform" type="rotate" values="0 30 116;-18 30 116;0 30 116" dur="2.0s" repeatCount="indefinite"/>
    </rect>
    <rect x="86" y="112" width="11" height="48" rx="6" fill="#FECACA">
      <animateTransform attributeName="transform" type="rotate" values="0 92 116;20 92 116;0 92 116" dur="2.0s" repeatCount="indefinite"/>
    </rect>
    <ellipse cx="50" cy="58" rx="3.5" ry="3.5" fill="#1F2937">
      <animate attributeName="ry" values="3.5;0.7;3.5" dur="4.2s" repeatCount="indefinite"/>
    </ellipse>
    <ellipse cx="70" cy="58" rx="3.5" ry="3.5" fill="#1F2937">
      <animate attributeName="ry" values="3.5;0.7;3.5" dur="4.2s" repeatCount="indefinite"/>
    </ellipse>
    <path d="M49 73 Q60 82 71 73" stroke="#1F2937" stroke-width="3.5" stroke-linecap="round"/>
  </g>

  <g transform="translate(232 220)">
    <rect x="0" y="0" width="496" height="238" rx="24" fill="#7C2D12"/>
    <rect x="20" y="16" width="456" height="56" rx="16" fill="#991B1B"/>
    <text x="62" y="54" font-family="Inter, Arial, sans-serif" font-size="32" font-weight="900" fill="#FDE68A">B</text>
    <text x="152" y="54" font-family="Inter, Arial, sans-serif" font-size="32" font-weight="900" fill="#FDE68A">I</text>
    <text x="242" y="54" font-family="Inter, Arial, sans-serif" font-size="32" font-weight="900" fill="#FDE68A">N</text>
    <text x="332" y="54" font-family="Inter, Arial, sans-serif" font-size="32" font-weight="900" fill="#FDE68A">G</text>
    <text x="422" y="54" font-family="Inter, Arial, sans-serif" font-size="32" font-weight="900" fill="#FDE68A">O</text>

    <rect x="20" y="82" width="456" height="136" rx="16" fill="url(#boardFace)"/>

    <g>
      <rect x="34" y="96" width="76" height="52" rx="12" fill="#fff"/>
      <rect x="120" y="96" width="76" height="52" rx="12" fill="#fff"/>
      <rect x="206" y="96" width="76" height="52" rx="12" fill="#fff"/>
      <rect x="292" y="96" width="76" height="52" rx="12" fill="#fff"/>
      <rect x="378" y="96" width="76" height="52" rx="12" fill="#fff"/>

      <rect x="34" y="158" width="76" height="52" rx="12" fill="#fff"/>
      <rect x="120" y="158" width="76" height="52" rx="12" fill="#fff"/>
      <rect x="206" y="158" width="76" height="52" rx="12" fill="#fff"/>
      <rect x="292" y="158" width="76" height="52" rx="12" fill="#fff"/>
      <rect x="378" y="158" width="76" height="52" rx="12" fill="#fff"/>
    </g>

    <g font-family="Inter, Arial, sans-serif" font-size="22" font-weight="900" fill="#7F1D1D" text-anchor="middle">
      <text x="72" y="130">8</text><text x="158" y="130">16</text><text x="244" y="130">28</text><text x="330" y="130">47</text><text x="416" y="130">63</text>
      <text x="72" y="192">10</text><text x="158" y="192">24</text><text x="244" y="192">FREE</text><text x="330" y="192">55</text><text x="416" y="192">72</text>
    </g>

    <circle cx="330" cy="122" r="17" fill="#93C5FD" opacity="0.45"/>
    <circle cx="72" cy="190" r="17" fill="#FCA5A5" opacity="0.45"/>
  </g>

  <g transform="translate(148 170)">
    <animateTransform attributeName="transform" type="translate" values="148 170;148 162;148 170" dur="3.3s" repeatCount="indefinite"/>
    <circle cx="72" cy="72" r="34" fill="#FDE68A"/>
    <rect x="44" y="108" width="56" height="92" rx="22" fill="#22D3EE"/>
    <rect x="34" y="122" width="12" height="56" rx="6" fill="#FDE68A">
      <animateTransform attributeName="transform" type="rotate" values="0 40 126;-18 40 126;0 40 126" dur="2.1s" repeatCount="indefinite"/>
    </rect>
    <rect x="98" y="122" width="12" height="56" rx="6" fill="#FDE68A">
      <animateTransform attributeName="transform" type="rotate" values="0 104 126;16 104 126;0 104 126" dur="2.1s" repeatCount="indefinite"/>
    </rect>
    <ellipse cx="60" cy="68" rx="4" ry="4" fill="#1F2937">
      <animate attributeName="ry" values="4;0.8;4" dur="4.6s" repeatCount="indefinite"/>
    </ellipse>
    <ellipse cx="84" cy="68" rx="4" ry="4" fill="#1F2937">
      <animate attributeName="ry" values="4;0.8;4" dur="4.6s" repeatCount="indefinite"/>
    </ellipse>
    <path d="M58 84 Q72 94 86 84" stroke="#1F2937" stroke-width="4" stroke-linecap="round"/>
  </g>

  <g transform="translate(740 178)">
    <animateTransform attributeName="transform" type="translate" values="740 178;740 170;740 178" dur="3.7s" repeatCount="indefinite"/>
    <circle cx="72" cy="72" r="34" fill="#FCD34D"/>
    <rect x="44" y="108" width="56" height="92" rx="22" fill="#A78BFA"/>
    <rect x="34" y="124" width="12" height="56" rx="6" fill="#FCD34D">
      <animateTransform attributeName="transform" type="rotate" values="0 40 126;-14 40 126;0 40 126" dur="2.3s" repeatCount="indefinite"/>
    </rect>
    <rect x="98" y="124" width="12" height="56" rx="6" fill="#FCD34D">
      <animateTransform attributeName="transform" type="rotate" values="0 104 126;18 104 126;0 104 126" dur="2.3s" repeatCount="indefinite"/>
    </rect>
    <ellipse cx="60" cy="68" rx="4" ry="4" fill="#1F2937">
      <animate attributeName="ry" values="4;0.8;4" dur="4.9s" repeatCount="indefinite"/>
    </ellipse>
    <ellipse cx="84" cy="68" rx="4" ry="4" fill="#1F2937">
      <animate attributeName="ry" values="4;0.8;4" dur="4.9s" repeatCount="indefinite"/>
    </ellipse>
    <path d="M58 84 Q72 94 86 84" stroke="#1F2937" stroke-width="4" stroke-linecap="round"/>
  </g>

  <g opacity="0.95">
    <circle cx="250" cy="476" r="16" fill="#FDE68A">
      <animate attributeName="cy" values="476;452;476" dur="2.5s" repeatCount="indefinite"/>
    </circle>
    <text x="250" y="482" text-anchor="middle" fill="#7F1D1D" font-family="Inter, Arial, sans-serif" font-size="14" font-weight="800">B9</text>

    <circle cx="698" cy="490" r="18" fill="#BAE6FD">
      <animate attributeName="cy" values="490;462;490" dur="2.9s" repeatCount="indefinite"/>
    </circle>
    <text x="698" y="496" text-anchor="middle" fill="#0F172A" font-family="Inter, Arial, sans-serif" font-size="14" font-weight="800">I21</text>

    <circle cx="480" cy="524" r="20" fill="#FBCFE8">
      <animate attributeName="cy" values="524;504;524" dur="2.7s" repeatCount="indefinite"/>
    </circle>
    <text x="480" y="530" text-anchor="middle" fill="#7F1D1D" font-family="Inter, Arial, sans-serif" font-size="14" font-weight="800">N40</text>
  </g>
</svg>
